<svg xmlns="http://www.w3.org/2000/svg" xmlns:xlink="http://www.w3.org/1999/xlink" fill="none" version="1.1" width="48" height="48" viewBox="0 0 48 48"><defs><linearGradient x1="1" y1="0.5" x2="0" y2="0.5" id="master_svg0_75_2040"><stop offset="0%" stop-color="#FD172F" stop-opacity="1"/><stop offset="100%" stop-color="#F15115" stop-opacity="1"/><stop offset="100.00003576278687%" stop-color="#A33AFF" stop-opacity="1"/></linearGradient><mask id="master_svg1_75_2044"><g style="mix-blend-mode:passthrough"><rect x="10" y="10" width="28" height="28" rx="0" fill="#FFFFFF" fill-opacity="1"/></g></mask><clipPath id="master_svg2_75_2048"><rect x="10" y="12" width="28" height="25" rx="0"/></clipPath></defs><g style="mix-blend-mode:passthrough"><g style="mix-blend-mode:passthrough"><rect x="0" y="0" width="48" height="48" rx="10" fill="url(#master_svg0_75_2040)" fill-opacity="1"/></g><g style="mix-blend-mode:passthrough" mask="url(#master_svg1_75_2044)"><g clip-path="url(#master_svg2_75_2048)"><g><path d="M36.08452294921875,23.058355317438966C36.058922949218754,26.482362437438965,36.074322949218754,30.748762437438966,36.06752294921875,34.17441243743897C36.06752294921875,36.090012437438965,35.15742294921875,36.986812437438964,33.194222949218755,36.99341243743896Q27.52602294921875,37.008212437438964,21.85956294921875,36.99341243743896C21.603932949218752,36.99341243743896,21.34830294921875,36.952212437438966,21.00746294921875,36.92251243743897L21.00746294921875,29.271672437438966L15.470512949218751,29.271672437438966L15.470512949218751,36.87631243743897C13.09486294921875,37.28191243743896,11.86102294921875,36.28621243743896,11.86102294921875,34.09031243743897C11.86102294921875,30.780082437438963,11.86102294921875,26.363662437438965,11.86102294921875,23.053412437438965L36.08452294921875,23.058355317438966Z" fill="#FFFFFF" fill-opacity="1"/></g><g><path d="M17.02977248046875,20.81126398071289C15.63403248046875,22.11522398071289,14.97280248046875,22.11032398071289,13.54128248046875,20.77664398071289C13.47332248046875,20.83032398071289,13.41006248046875,20.88932398071289,13.352112480468751,20.95304398071289C12.81358248046875,21.653663980712892,12.10804248046875,21.95205398071289,11.24231248046875,21.653663980712892C10.33568048046875,21.34044398071289,10.12265548046875,20.638173980712892,10.04937498046875,19.74466398071289C9.85509648046875,17.543873980712892,10.30500448046875,15.53925398071289,11.58315248046875,13.707743980712891C11.77328248046875,13.45043398071289,11.92742248046875,13.16995398071289,12.041582480468751,12.87358198071289C12.28187248046875,12.19933298071289,12.723262480468751,12.017993080712891,13.45948248046875,12.01964198071289C20.18254248046875,12.04931568071289,26.90734248046875,12.08228578071289,33.630342480468755,11.99985915571289C35.01764248046875,11.98337408071289,35.64474248046875,12.43342298071289,36.334942480468754,13.56926398071289C37.572242480468745,15.606853980712891,38.18234248046875,17.69059398071289,37.94884248046875,20.02492398071289C37.87214248046875,20.79148398071289,37.54494248046875,21.35693398071289,36.82064248046875,21.63883398071289C36.147442480468754,21.90259398071289,35.487942480468746,21.89270398071289,34.96814248046875,21.26461398071289C34.78424248046875,21.086733980712893,34.57944248046875,20.93016398071289,34.358042480468754,20.798073980712893C33.19074248046875,22.12842398071289,32.24824248046875,22.11692398071289,30.89174248046875,20.766753980712892C29.62724248046875,22.11852398071289,28.77004248046875,22.12352398071289,27.44754248046875,20.78159398071289C26.10634248046875,22.11192398071289,25.15374248046875,22.10042398071289,24.005042480468752,20.76510398071289C22.64174248046875,22.126823980712892,21.73334248046875,22.12352398071289,20.496142480468748,20.75356398071289C19.25035248046875,22.11692398071289,18.43744248046875,22.130123980712888,17.02977248046875,20.81126398071289Z" fill="#FFFFFF" fill-opacity="1"/></g><g><rect x="25.46392822265625" y="30.135513305664062" width="2.8766887187957764" height="3.227827548980713" rx="0.5072227716445923" fill="#F29049" fill-opacity="1"/></g><g><rect x="28.93707275390625" y="30.135513305664062" width="2.8766887187957764" height="3.227827548980713" rx="0.5072227716445923" fill="#F29049" fill-opacity="1"/></g><g><path d="M28.34056515625,26.76590919494629C26.75314515625,26.76773038494629,25.46728515625,28.01305919494629,25.46728515625,29.54862919494629L28.34397515625,29.54862919494629L28.34056515625,26.76590919494629Z" fill="#F29049" fill-opacity="1"/></g><g><path d="M28.93707275390625,26.76590919494629C30.52582275390625,26.76590919494629,31.81376275390625,28.01177919494629,31.81376275390625,29.54862919494629L28.93707275390625,29.54862919494629L28.93707275390625,26.76590919494629Z" fill="#F29049" fill-opacity="1"/></g></g></g></g></svg>