<svg xmlns="http://www.w3.org/2000/svg" xmlns:xlink="http://www.w3.org/1999/xlink" fill="none" version="1.1" width="15" height="15" viewBox="0 0 15 15"><g style="mix-blend-mode:passthrough"><path d="M9.58786,4.23047Q9.64248,4.34114,9.74234,4.41369Q9.84219,4.48624,9.96433,4.50399L13.6303,5.03669Q13.6648,5.0417,13.6982,5.05143Q13.7317,5.06116,13.7634,5.07543Q13.7952,5.08971,13.8246,5.10824Q13.8541,5.12678,13.8807,5.14922Q13.9074,5.17166,13.9306,5.19758Q13.9539,5.22349,13.9733,5.25238Q13.9927,5.28127,14.008,5.31257Q14.0232,5.34387,14.034,5.37698Q14.0447,5.4101,14.0508,5.44438Q14.0569,5.47866,14.0581,5.51346Q14.0594,5.54825,14.0558,5.58289Q14.0522,5.61752,14.0439,5.65132Q14.0355,5.68512,14.0226,5.71744Q14.0096,5.74976,13.9923,5.77997Q13.975,5.81019,13.9537,5.83771Q13.9324,5.86523,13.9074,5.88954L11.2547,8.47533Q11.1663,8.56148,11.1282,8.67887Q11.09,8.79625,11.1109,8.9179L11.7371,12.5691Q11.743,12.6034,11.7441,12.6382Q11.7452,12.673,11.7414,12.7076Q11.7376,12.7422,11.7291,12.776Q11.7206,12.8098,11.7075,12.842Q11.6944,12.8743,11.6769,12.9044Q11.6594,12.9345,11.638,12.9619Q11.6165,12.9893,11.5914,13.0135Q11.5664,13.0377,11.5382,13.0581Q11.51,13.0786,11.4793,13.095Q11.4486,13.1113,11.4159,13.1233Q11.3832,13.1352,11.3491,13.1425Q11.3151,13.1498,11.2804,13.1523Q11.2456,13.1548,11.2109,13.1525Q11.1762,13.1502,11.1421,13.1431Q11.108,13.1359,11.0752,13.1242Q11.0425,13.1124,11.0117,13.0962L7.73267,11.3723Q7.62343,11.3149,7.5,11.3149Q7.37658,11.3149,7.26733,11.3723L3.98835,13.0962Q3.95753,13.1124,3.92476,13.1242Q3.892,13.1359,3.85792,13.1431Q3.82384,13.1502,3.7891,13.1525Q3.75436,13.1548,3.71963,13.1523Q3.68491,13.1498,3.65086,13.1425Q3.61682,13.1352,3.58412,13.1233Q3.55141,13.1113,3.52068,13.095Q3.48995,13.0786,3.46178,13.0581Q3.43362,13.0377,3.40856,13.0135Q3.3835,12.9893,3.36203,12.9619Q3.34056,12.9345,3.3231,12.9044Q3.30564,12.8743,3.29252,12.842Q3.27941,12.8098,3.27088,12.776Q3.26236,12.7422,3.2586,12.7076Q3.25484,12.673,3.25591,12.6382Q3.25699,12.6034,3.26287,12.5691L3.8891,8.9179Q3.90997,8.79625,3.87183,8.67887Q3.83369,8.56148,3.7453,8.47533L1.09255,5.88954Q1.06762,5.86523,1.0463,5.83771Q1.02497,5.81019,1.00767,5.77997Q0.990368,5.74976,0.97742,5.71744Q0.964472,5.68512,0.956128,5.65132Q0.947784,5.61752,0.944205,5.58289Q0.940626,5.54825,0.941882,5.51346Q0.943138,5.47867,0.949204,5.44438Q0.955269,5.4101,0.966028,5.37699Q0.976787,5.34387,0.992032,5.31257Q1.00728,5.28127,1.02671,5.25238Q1.04615,5.22349,1.0694,5.19758Q1.09265,5.17167,1.11927,5.14922Q1.14589,5.12678,1.17536,5.10824Q1.20483,5.08971,1.23659,5.07544Q1.26835,5.06116,1.30177,5.05143Q1.3352,5.0417,1.36966,5.03669L5.03567,4.50399Q5.15781,4.48624,5.25766,4.41369Q5.35752,4.34114,5.41214,4.23047L7.05163,0.908493Q7.06704,0.877271,7.08663,0.848487Q7.10622,0.819702,7.1296,0.79391Q7.15299,0.768118,7.17973,0.745816Q7.20646,0.723515,7.23603,0.705134Q7.2656,0.686753,7.29743,0.672647Q7.32926,0.658542,7.36274,0.648984Q7.39622,0.639426,7.4307,0.634601Q7.46518,0.629776,7.5,0.629776Q7.53482,0.629776,7.5693,0.634601Q7.60378,0.639426,7.63726,0.648984Q7.67074,0.658542,7.70257,0.672647Q7.7344,0.686753,7.76397,0.705134Q7.79354,0.723515,7.82027,0.745816Q7.84701,0.768118,7.8704,0.79391Q7.89379,0.819702,7.91337,0.848487Q7.93296,0.877271,7.94837,0.908493L9.58786,4.23047Z" fill="#FFF06B" fill-opacity="1"/></g></svg>